<svg xmlns="http://www.w3.org/2000/svg" xmlns:xlink="http://www.w3.org/1999/xlink" width="500" zoomAndPan="magnify" viewBox="0 0 375 374.999991" height="500" preserveAspectRatio="xMidYMid meet" version="1.0"><defs><g/><clipPath id="0ba384bd1d"><path d="M 132.980469 91.597656 L 234 91.597656 L 234 167 L 132.980469 167 Z M 132.980469 91.597656 " clip-rule="nonzero"/></clipPath><clipPath id="b266e9cf7a"><path d="M 132.980469 130 L 199 130 L 199 206 L 132.980469 206 Z M 132.980469 130 " clip-rule="nonzero"/></clipPath><clipPath id="072b222290"><path d="M 132.980469 184 L 199 184 L 199 241.597656 L 132.980469 241.597656 Z M 132.980469 184 " clip-rule="nonzero"/></clipPath><clipPath id="d5046ea0bd"><path d="M 198 184 L 234 184 L 234 241.597656 L 198 241.597656 Z M 198 184 " clip-rule="nonzero"/></clipPath></defs><g clip-path="url(#0ba384bd1d)"><path fill="#002e45" d="M 132.980469 166.597656 L 198.613281 127.636719 L 198.613281 127.875 L 233.855469 109.777344 L 198.613281 91.679688 L 132.980469 130.636719 Z M 132.980469 166.597656 " fill-opacity="1" fill-rule="evenodd"/></g><g clip-path="url(#b266e9cf7a)"><path fill="#2b7994" d="M 132.980469 130.636719 L 198.613281 169.550781 L 198.613281 205.507812 L 132.980469 166.597656 Z M 132.980469 130.636719 " fill-opacity="1" fill-rule="evenodd"/></g><path fill="#00536b" d="M 198.613281 127.636719 L 233.855469 148.546875 L 198.613281 169.453125 Z M 198.613281 127.636719 " fill-opacity="1" fill-rule="evenodd"/><g clip-path="url(#072b222290)"><path fill="#00536b" d="M 163.273438 184.554688 L 198.613281 205.507812 L 198.613281 241.515625 L 132.980469 202.554688 Z M 163.273438 184.554688 " fill-opacity="1" fill-rule="evenodd"/></g><g clip-path="url(#d5046ea0bd)"><path fill="#2b7994" d="M 233.855469 184.601562 L 198.613281 205.507812 L 198.613281 241.515625 L 233.855469 220.558594 Z M 233.855469 184.601562 " fill-opacity="1" fill-rule="evenodd"/></g><g fill="#87ceeb" fill-opacity="1"><g transform="translate(131.220641, 261.808651)"><g><path d="M 9.484375 0 L 8.546875 -3.0625 L 3.875 -3.0625 L 2.9375 0 L 0 0 L 4.53125 -12.90625 L 7.859375 -12.90625 L 12.421875 0 Z M 7.90625 -5.34375 C 7.039062 -8.113281 6.550781 -9.679688 6.4375 -10.046875 C 6.332031 -10.410156 6.257812 -10.695312 6.21875 -10.90625 C 6.019531 -10.15625 5.460938 -8.300781 4.546875 -5.34375 Z M 7.90625 -5.34375 "/></g></g></g><g fill="#87ceeb" fill-opacity="1"><g transform="translate(148.373606, 261.808651)"><g><path d="M 4.34375 -6.796875 L 5.234375 -6.796875 C 6.078125 -6.796875 6.707031 -6.960938 7.125 -7.296875 C 7.539062 -7.628906 7.75 -8.113281 7.75 -8.75 C 7.75 -9.382812 7.570312 -9.851562 7.21875 -10.15625 C 6.875 -10.46875 6.328125 -10.625 5.578125 -10.625 L 4.34375 -10.625 Z M 10.5 -8.84375 C 10.5 -7.457031 10.066406 -6.398438 9.203125 -5.671875 C 8.335938 -4.941406 7.109375 -4.578125 5.515625 -4.578125 L 4.34375 -4.578125 L 4.34375 0 L 1.625 0 L 1.625 -12.84375 L 5.71875 -12.84375 C 7.28125 -12.84375 8.46875 -12.507812 9.28125 -11.84375 C 10.09375 -11.175781 10.5 -10.175781 10.5 -8.84375 Z M 10.5 -8.84375 "/></g></g></g><g fill="#87ceeb" fill-opacity="1"><g transform="translate(164.410359, 261.808651)"><g><path d="M 1.625 0 L 1.625 -12.84375 L 4.34375 -12.84375 L 4.34375 0 Z M 1.625 0 "/></g></g></g><g fill="#87ceeb" fill-opacity="1"><g transform="translate(175.103363, 261.808651)"><g><path d="M 4.34375 -7.140625 L 5.21875 -7.140625 C 6.082031 -7.140625 6.71875 -7.28125 7.125 -7.5625 C 7.539062 -7.851562 7.75 -8.3125 7.75 -8.9375 C 7.75 -9.539062 7.535156 -9.972656 7.109375 -10.234375 C 6.691406 -10.492188 6.046875 -10.625 5.171875 -10.625 L 4.34375 -10.625 Z M 4.34375 -4.9375 L 4.34375 0 L 1.625 0 L 1.625 -12.84375 L 5.359375 -12.84375 C 7.109375 -12.84375 8.398438 -12.523438 9.234375 -11.890625 C 10.078125 -11.253906 10.5 -10.289062 10.5 -9 C 10.5 -8.238281 10.289062 -7.5625 9.875 -6.96875 C 9.457031 -6.382812 8.867188 -5.925781 8.109375 -5.59375 C 10.035156 -2.707031 11.296875 -0.84375 11.890625 0 L 8.859375 0 L 5.796875 -4.9375 Z M 4.34375 -4.9375 "/></g></g></g><g fill="#87ceeb" fill-opacity="1"><g transform="translate(191.720195, 261.808651)"><g><path d="M 9.484375 0 L 8.546875 -3.0625 L 3.875 -3.0625 L 2.9375 0 L 0 0 L 4.53125 -12.90625 L 7.859375 -12.90625 L 12.421875 0 Z M 7.90625 -5.34375 C 7.039062 -8.113281 6.550781 -9.679688 6.4375 -10.046875 C 6.332031 -10.410156 6.257812 -10.695312 6.21875 -10.90625 C 6.019531 -10.15625 5.460938 -8.300781 4.546875 -5.34375 Z M 7.90625 -5.34375 "/></g></g></g><g fill="#87ceeb" fill-opacity="1"><g transform="translate(208.87316, 261.808651)"><g><path d="M 4.34375 -7.140625 L 5.21875 -7.140625 C 6.082031 -7.140625 6.71875 -7.28125 7.125 -7.5625 C 7.539062 -7.851562 7.75 -8.3125 7.75 -8.9375 C 7.75 -9.539062 7.535156 -9.972656 7.109375 -10.234375 C 6.691406 -10.492188 6.046875 -10.625 5.171875 -10.625 L 4.34375 -10.625 Z M 4.34375 -4.9375 L 4.34375 0 L 1.625 0 L 1.625 -12.84375 L 5.359375 -12.84375 C 7.109375 -12.84375 8.398438 -12.523438 9.234375 -11.890625 C 10.078125 -11.253906 10.5 -10.289062 10.5 -9 C 10.5 -8.238281 10.289062 -7.5625 9.875 -6.96875 C 9.457031 -6.382812 8.867188 -5.925781 8.109375 -5.59375 C 10.035156 -2.707031 11.296875 -0.84375 11.890625 0 L 8.859375 0 L 5.796875 -4.9375 Z M 4.34375 -4.9375 "/></g></g></g><g fill="#87ceeb" fill-opacity="1"><g transform="translate(225.489991, 261.808651)"><g><path d="M 13.28125 -6.4375 C 13.28125 -4.3125 12.75 -2.675781 11.6875 -1.53125 C 10.632812 -0.394531 9.125 0.171875 7.15625 0.171875 C 5.1875 0.171875 3.675781 -0.394531 2.625 -1.53125 C 1.570312 -2.675781 1.046875 -4.316406 1.046875 -6.453125 C 1.046875 -8.597656 1.570312 -10.234375 2.625 -11.359375 C 3.6875 -12.484375 5.207031 -13.046875 7.1875 -13.046875 C 9.15625 -13.046875 10.660156 -12.476562 11.703125 -11.34375 C 12.753906 -10.207031 13.28125 -8.570312 13.28125 -6.4375 Z M 3.90625 -6.4375 C 3.90625 -5.007812 4.175781 -3.929688 4.71875 -3.203125 C 5.257812 -2.472656 6.070312 -2.109375 7.15625 -2.109375 C 9.332031 -2.109375 10.421875 -3.550781 10.421875 -6.4375 C 10.421875 -9.332031 9.34375 -10.78125 7.1875 -10.78125 C 6.101562 -10.78125 5.285156 -10.414062 4.734375 -9.6875 C 4.179688 -8.957031 3.90625 -7.875 3.90625 -6.4375 Z M 3.90625 -6.4375 "/></g></g></g><g fill="#524335" fill-opacity="1"><g transform="translate(244.552665, 261.808651)"><g/></g></g></svg>